<?xml version="1.0" encoding="UTF-8" standalone="no"?>
<!-- Created with Inkscape (http://www.inkscape.org/) -->

<svg
   version="1.1"
   id="svg1"
   width="32"
   height="39"
   viewBox="0 0 468.58655 568.30005"
   xmlns="http://www.w3.org/2000/svg"
   xmlns:svg="http://www.w3.org/2000/svg">
  <defs
     id="defs1" />
  <g
     id="g1"
     transform="translate(-84.999999,-39.617809)">
    <path
       style="fill:#EAFF00"
       d="m 118.66666,607.27695 c -15.97269,-4.12646 -26.67646,-13.668 -32.095202,-28.61028 l -1.571461,-4.33334 V 323.66667 c 0,-240.859729 0.04753,-250.797081 1.21493,-254.000003 5.216929,-14.313395 14.880643,-24.030674 28.331163,-28.488195 5.4588,-1.809053 18.35664,-2.111754 23.78724,-0.558265 3.24525,0.928345 12.89493,5.56776 13.63202,6.554061 0.20239,0.270819 2.91798,2.43052 6.03464,4.799335 3.11667,2.368815 7.94018,6.118815 10.71892,8.333333 2.77873,2.214519 6.05139,4.776397 7.27258,5.693064 1.22119,0.916667 3.92501,3.016667 6.0085,4.666667 2.08349,1.65 4.78349,3.75 6,4.666666 1.21651,0.916667 3.91651,3.016667 6,4.666667 2.08349,1.65 4.78243,3.75 5.99765,4.666667 1.21521,0.916666 5.83787,4.495774 10.27258,7.953571 8.67638,6.765082 16.42355,12.783542 21.94331,17.046872 6.68897,5.16639 44.81618,34.86631 47.1834,36.75441 1.31832,1.0515 3.39099,2.66181 4.60592,3.57848 1.84849,1.39468 5.14436,3.96933 11.34732,8.86424 0.55927,0.44134 3.55927,2.74411 6.66667,5.11727 3.1074,2.37316 5.99076,4.62316 6.40746,5 0.4167,0.37684 2.92431,2.33516 5.57247,4.35182 2.64815,2.01667 7.28423,5.61667 10.30239,8 3.01816,2.38334 6.48321,5.08334 7.70011,6 1.21691,0.91667 3.91723,3.01667 6.00072,4.66667 2.08349,1.65 4.78165,3.75 5.99591,4.66667 3.64974,2.75526 45.56468,35.32946 47.02081,36.54223 0.74254,0.61844 3.89254,3.06173 7,5.42953 3.10747,2.3678 5.79994,4.4678 5.98328,4.66666 0.18333,0.19887 2.88333,2.2997 6,4.66851 3.11666,2.36882 7.94017,6.11882 10.71891,8.33334 2.77873,2.21451 6.05139,4.77639 7.27258,5.69306 1.22119,0.91667 3.92501,3.01667 6.0085,4.66667 2.0835,1.65 4.7835,3.75 6,4.66666 1.21651,0.91667 3.91651,3.01667 6,4.66667 2.08349,1.65 4.78243,3.75 5.99765,4.66667 1.21521,0.91666 5.83787,4.49577 10.27258,7.95357 8.84859,6.89935 16.6125,12.93029 21.94467,17.04643 1.89996,1.46666 13.4509,10.46666 25.66874,20 12.21783,9.53333 24.29659,18.93056 26.84168,20.88273 5.27678,4.04748 10.4888,10.16412 12.95348,15.20175 3.18578,6.5115 3.91105,10.02215 3.90776,18.91552 -0.003,9.09898 -0.9394,12.9355 -5.07645,20.80664 -4.67017,8.88545 -15.30106,17.57648 -24.49979,20.0292 -5.85067,1.56001 -17.61969,1.75373 -111.67698,1.83828 -55,0.0494 -101.5,0.34297 -103.33333,0.65229 -5.26462,0.88827 -7.88774,1.69341 -12.08637,3.70981 -8.26669,3.97007 -13.13271,8.16337 -20.8457,17.96378 -2.30855,2.93333 -4.69324,5.93925 -5.29931,6.67982 -0.60608,0.74056 -1.89294,2.39056 -2.8597,3.66666 -0.96676,1.2761 -2.31676,2.97681 -3,3.77935 -0.68324,0.80255 -4.69225,5.85063 -8.90892,11.21797 -4.21667,5.36734 -13.66667,17.31702 -21,26.55485 -7.33333,9.23783 -14.14308,17.83974 -15.13276,19.11537 -0.98969,1.27562 -5.48969,6.98964 -10,12.69782 -4.51032,5.70818 -13.60057,17.21497 -20.20057,25.57063 -25.34829,32.09118 -31.29667,39.45635 -33.60967,41.61484 -5.59816,5.2242 -12.39053,8.80911 -20.23323,10.67881 -3.70872,0.88416 -13.78923,0.90422 -17.1571,0.0342 z m 16.07645,-51.11028 c 8.06665,-10.15757 10.2787,-12.93381 12.92355,-16.21977 1.1,-1.36664 6.65,-8.39426 12.33333,-15.61693 11.43903,-14.5373 28.63654,-36.28578 32.50469,-41.10636 1.37242,-1.71035 6.54531,-8.26171 11.49531,-14.55859 4.95,-6.29687 13.2,-16.7555 18.33334,-23.2414 5.13333,-6.48589 10.23333,-12.95325 11.33333,-14.3719 19.16494,-24.71669 27.08319,-32.34066 41.1542,-39.62471 9.6398,-4.99017 14.66317,-6.6868 27.72999,-9.3657 2.4756,-0.50753 34.41086,-0.72798 105.46065,-0.72798 60.17778,0 102.06267,-0.24735 102.28311,-0.60404 0.38399,-0.62131 -2.48635,-3.16728 -10.62796,-9.42695 -2.56667,-1.97338 -7.96667,-6.16896 -12,-9.32351 -4.03333,-3.15455 -9.44775,-7.36528 -12.03203,-9.35719 C 473.05033,350.62974 438.57873,323.8 399.03105,293 c -86.81907,-67.61529 -78.79759,-61.37082 -83.48839,-64.99307 -2.1318,-1.64618 -6.16484,-4.79618 -8.9623,-7 -2.79746,-2.20381 -7.25518,-5.65693 -9.90604,-7.6736 -2.65086,-2.01666 -8.06002,-6.21666 -12.02035,-9.33333 -3.96033,-3.11667 -10.00261,-7.83055 -13.42729,-10.4753 -3.42468,-2.64475 -12.67669,-9.81848 -20.56002,-15.94162 -7.88334,-6.12314 -16.28333,-12.64091 -18.66667,-14.48393 -2.38333,-1.84302 -6.73333,-5.23422 -9.66666,-7.53601 -11.59768,-9.1007 -17.09635,-13.3849 -21.68619,-16.89647 -2.63591,-2.01667 -8.03104,-6.21667 -11.98918,-9.33334 -3.95814,-3.11666 -10.10851,-7.91666 -13.6675,-10.66666 -3.55899,-2.75 -8.76944,-6.8 -11.57879,-9 -2.80934,-2.2 -7.65125,-5.93812 -10.75979,-8.30694 -3.10853,-2.368815 -7.94961,-6.118815 -10.75794,-8.333333 -2.80833,-2.214518 -6.92289,-5.451397 -9.14347,-7.193064 -2.22057,-1.741666 -4.49785,-3.166666 -5.06061,-3.166666 -0.91793,0 -1.0232,24.748563 -1.0232,240.555553 0,132.30556 0.2,240.75556 0.44445,241 0.24444,0.24445 0.54283,0.44445 0.66307,0.44445 0.12025,0 3.25627,-3.825 6.96893,-8.5 z"
       id="path1" />
    <path
       style="fill:#ffffff;stroke-width:0.773723"
       d="m 127.40173,542.50684 c -0.66399,-27.96536 -0.66426,-413.28631 -3.1e-4,-439.08936 0.28101,-10.92049 0.78457,-19.855436 1.11903,-19.855436 0.48683,0 123.19387,95.312216 359.69853,279.394456 9.14927,7.12129 17.83669,13.9681 19.30537,15.21514 l 2.67033,2.26734 -103.25427,0.43825 c -91.56904,0.38865 -103.86721,0.58059 -108.67034,1.69604 -17.05207,3.96007 -31.05719,11.16649 -42.06892,21.64682 -7.3082,6.95553 -11.88721,12.57248 -61.22333,75.10108 -24.84655,31.49051 -50.10131,63.40581 -56.1217,70.9229 l -10.94617,13.66741 z"
       id="path2" />
  </g>
</svg>
