<?xml version="1.0" encoding="UTF-8" standalone="no"?>
<!-- Created with Inkscape (http://www.inkscape.org/) -->

<svg
   version="1.1"
   id="svg1"
   width="32"
   height="38"
   viewBox="0 0 442.26614 519.09387"
   xmlns="http://www.w3.org/2000/svg"
   xmlns:svg="http://www.w3.org/2000/svg">
  <defs id="defs1">
    <filter id="shadow">
      <feDropShadow dx="0" dy="15" stdDeviation="15" flood-opacity="0.3"/>
    </filter>
  </defs>
  <g
     id="g1"
     transform="translate(-45.742886,-101.35756)" filter="url(#shadow)">
    <path
       stroke="none"
       d="M 308.66667,620.23785 C 307.38333,620.08191 302.58333,619.5032 298,618.95182 287.0146,617.63026 272.97542,615.10733 270.33333,613.97994 269.6,613.66703 267.95,613.21618 266.66667,612.97806 262.12813,612.13595 250.464,607.91878 247,605.86758 c -1.1,-0.65137 -2.6,-1.46118 -3.33333,-1.79957 -2.58269,-1.19179 -9.58618,-6.44293 -13.4377,-10.07546 -7.93079,-7.47984 -12.73263,-14.64715 -15.6634,-23.37945 -1.99706,-5.95028 -1.99011,-15.26229 0.0159,-21.27975 0.79451,-2.38333 1.72717,-4.78237 2.07259,-5.3312 0.48867,-0.77645 -1.77308,-3.36514 -10.19326,-11.66667 -5.9517,-5.86784 -14.41516,-14.55889 -18.80769,-19.31345 -13.82994,-14.96978 -30.18334,-31.253 -34.15862,-34.01201 -6.89733,-4.78705 -8.87205,-5.52241 -18.8278,-7.01125 -2.38334,-0.35641 -5.53334,-0.92616 -7,-1.2661 -1.46667,-0.33993 -5.06667,-1.13817 -8,-1.77385 C 96.668363,463.97486 74.105316,455.1557 63,446.80965 54.781754,440.63334 50.954249,435.70562 46.404364,425.44358 c -1.060474,-2.39185 -0.792016,-12.65937 0.421223,-16.11023 2.189378,-6.22734 9.446668,-18.91008 15.068401,-26.33334 4.34628,-5.73907 12.405926,-13.92619 17.439345,-17.71517 5.825259,-4.38504 16.471727,-9.65404 22.999997,-11.38284 7.61992,-2.01789 21.52175,-2.43744 30.18145,-0.91087 7.99693,1.40974 18.20086,4.39365 19.78522,5.78574 0.34833,0.30606 1.03651,0.55647 1.52927,0.55647 1.84139,0 21.21991,10.06333 25.23366,13.10391 1.13461,0.85952 2.2917,1.56276 2.57132,1.56276 0.59237,0 10.50202,6.89056 17.64958,12.27244 2.72277,2.05016 5.16127,3.72756 5.4189,3.72756 0.50289,0 0.98903,-1.62126 3.89812,-13 4.78975,-18.73484 5.71838,-28.28577 5.70408,-58.66667 -0.0115,-24.47176 -0.46296,-32.67307 -3.266,-59.33333 -5.19889,-49.44757 -5.84861,-61.40712 -4.08068,-75.11456 2.15385,-16.69954 4.36263,-24.14161 11.14535,-37.55211 6.00895,-11.88066 13.95765,-21.49294 25.37624,-30.68724 2.0079,-1.61676 9.80676,-6.25376 13.18683,-7.84054 14.99874,-7.04119 30.66121,-8.385085 43,-3.68956 3.26857,1.24385 9.83807,5.26739 12.22024,7.48438 4.73267,4.4045 8.87324,11.94967 10.51231,19.15609 1.26753,5.5729 1.07902,15.60541 -0.73111,38.9102 -1.24929,16.08417 -2.25117,40.52128 -2.2994,56.0849 l -0.0354,11.41823 10.16667,-0.31649 c 5.76437,-0.17944 12.33173,0.001 15.16667,0.41682 12.94966,1.89921 12.7608,1.85477 22.33333,5.25508 12.37443,4.39559 23.28227,11.35153 31.06177,19.80813 5.8795,6.39124 7.24154,8.04935 7.25609,8.83334 0.009,0.45833 0.26752,0.83333 0.57557,0.83333 0.30806,0 2.03306,2.96351 3.83334,6.58558 3.08798,6.21286 3.40529,6.60442 5.60656,6.91859 5.27417,0.75275 11.06366,1.9309 12.02564,2.44719 0.5641,0.30275 2.28753,0.76365 3.82984,1.02422 1.54231,0.26057 2.97348,0.74767 3.18037,1.08243 0.2069,0.33476 0.83232,0.60866 1.38982,0.60866 1.79957,0 12.74914,5.80004 16.71905,8.85617 15.2454,11.73625 26.47436,31.20485 31.80548,55.14383 0.61241,2.75 1.38949,5.9 1.72683,7 2.89484,9.43949 2.61173,34.35611 -0.63251,55.66667 -2.04677,13.44471 -8.97762,41.02257 -12.56597,50 -0.3664,0.91666 -1.18919,3.01666 -1.82842,4.66666 -0.63923,1.65 -1.87201,4.58321 -2.73952,6.51823 -0.8675,1.93502 -1.57727,3.66335 -1.57727,3.84072 0,1.76196 -16.07577,30.70489 -17.94467,32.30772 -0.21377,0.18334 -1.42322,1.83334 -2.68768,3.66667 -1.26445,1.83333 -2.46568,3.48333 -2.66939,3.66667 -0.20371,0.18333 -2.14984,2.58333 -4.32473,5.33333 -4.5146,5.70839 -19.2655,20.61614 -25.70687,25.9802 -2.38333,1.98473 -4.59166,3.82445 -4.9074,4.08827 -0.31574,0.26382 0.0361,2.38135 0.7818,4.7056 4.19063,13.06118 1.28153,24.57758 -8.68523,34.38269 -2.67071,2.62739 -5.6874,5.4189 -6.70375,6.20335 -2.03361,1.5696 -12.51122,7.8633 -15.15208,9.10157 -7.84175,3.67691 -14.03775,5.41709 -27,7.58312 -4.52609,0.75632 -38.2946,1.43146 -43,0.8597 z"
       fill="white"
       id="path-bg" />
    <path
       fill="#EAFF00" stroke="none"
       d="M 308.66667,620.23785 C 307.38333,620.08191 302.58333,619.5032 298,618.95182 287.0146,617.63026 272.97542,615.10733 270.33333,613.97994 269.6,613.66703 267.95,613.21618 266.66667,612.97806 262.12813,612.13595 250.464,607.91878 247,605.86758 c -1.1,-0.65137 -2.6,-1.46118 -3.33333,-1.79957 -2.58269,-1.19179 -9.58618,-6.44293 -13.4377,-10.07546 -7.93079,-7.47984 -12.73263,-14.64715 -15.6634,-23.37945 -1.99706,-5.95028 -1.99011,-15.26229 0.0159,-21.27975 0.79451,-2.38333 1.72717,-4.78237 2.07259,-5.3312 0.48867,-0.77645 -1.77308,-3.36514 -10.19326,-11.66667 -5.9517,-5.86784 -14.41516,-14.55889 -18.80769,-19.31345 -13.82994,-14.96978 -30.18334,-31.253 -34.15862,-34.01201 -6.89733,-4.78705 -8.87205,-5.52241 -18.8278,-7.01125 -2.38334,-0.35641 -5.53334,-0.92616 -7,-1.2661 -1.46667,-0.33993 -5.06667,-1.13817 -8,-1.77385 C 96.668363,463.97486 74.105316,455.1557 63,446.80965 54.781754,440.63334 50.954249,435.70562 46.404364,425.44358 c -1.060474,-2.39185 -0.792016,-12.65937 0.421223,-16.11023 2.189378,-6.22734 9.446668,-18.91008 15.068401,-26.33334 4.34628,-5.73907 12.405926,-13.92619 17.439345,-17.71517 5.825259,-4.38504 16.471727,-9.65404 22.999997,-11.38284 7.61992,-2.01789 21.52175,-2.43744 30.18145,-0.91087 7.99693,1.40974 18.20086,4.39365 19.78522,5.78574 0.34833,0.30606 1.03651,0.55647 1.52927,0.55647 1.84139,0 21.21991,10.06333 25.23366,13.10391 1.13461,0.85952 2.2917,1.56276 2.57132,1.56276 0.59237,0 10.50202,6.89056 17.64958,12.27244 2.72277,2.05016 5.16127,3.72756 5.4189,3.72756 0.50289,0 0.98903,-1.62126 3.89812,-13 4.78975,-18.73484 5.71838,-28.28577 5.70408,-58.66667 -0.0115,-24.47176 -0.46296,-32.67307 -3.266,-59.33333 -5.19889,-49.44757 -5.84861,-61.40712 -4.08068,-75.11456 2.15385,-16.69954 4.36263,-24.14161 11.14535,-37.55211 6.00895,-11.88066 13.95765,-21.49294 25.37624,-30.68724 2.0079,-1.61676 9.80676,-6.25376 13.18683,-7.84054 14.99874,-7.04119 30.66121,-8.385085 43,-3.68956 3.26857,1.24385 9.83807,5.26739 12.22024,7.48438 4.73267,4.4045 8.87324,11.94967 10.51231,19.15609 1.26753,5.5729 1.07902,15.60541 -0.73111,38.9102 -1.24929,16.08417 -2.25117,40.52128 -2.2994,56.0849 l -0.0354,11.41823 10.16667,-0.31649 c 5.76437,-0.17944 12.33173,0.001 15.16667,0.41682 12.94966,1.89921 12.7608,1.85477 22.33333,5.25508 12.37443,4.39559 23.28227,11.35153 31.06177,19.80813 5.8795,6.39124 7.24154,8.04935 7.25609,8.83334 0.009,0.45833 0.26752,0.83333 0.57557,0.83333 0.30806,0 2.03306,2.96351 3.83334,6.58558 3.08798,6.21286 3.40529,6.60442 5.60656,6.91859 5.27417,0.75275 11.06366,1.9309 12.02564,2.44719 0.5641,0.30275 2.28753,0.76365 3.82984,1.02422 1.54231,0.26057 2.97348,0.74767 3.18037,1.08243 0.2069,0.33476 0.83232,0.60866 1.38982,0.60866 1.79957,0 12.74914,5.80004 16.71905,8.85617 15.2454,11.73625 26.47436,31.20485 31.80548,55.14383 0.61241,2.75 1.38949,5.9 1.72683,7 2.89484,9.43949 2.61173,34.35611 -0.63251,55.66667 -2.04677,13.44471 -8.97762,41.02257 -12.56597,50 -0.3664,0.91666 -1.18919,3.01666 -1.82842,4.66666 -0.63923,1.65 -1.87201,4.58321 -2.73952,6.51823 -0.8675,1.93502 -1.57727,3.66335 -1.57727,3.84072 0,1.76196 -16.07577,30.70489 -17.94467,32.30772 -0.21377,0.18334 -1.42322,1.83334 -2.68768,3.66667 -1.26445,1.83333 -2.46568,3.48333 -2.66939,3.66667 -0.20371,0.18333 -2.14984,2.58333 -4.32473,5.33333 -4.5146,5.70839 -19.2655,20.61614 -25.70687,25.9802 -2.38333,1.98473 -4.59166,3.82445 -4.9074,4.08827 -0.31574,0.26382 0.0361,2.38135 0.7818,4.7056 4.19063,13.06118 1.28153,24.57758 -8.68523,34.38269 -2.67071,2.62739 -5.6874,5.4189 -6.70375,6.20335 -2.03361,1.5696 -12.51122,7.8633 -15.15208,9.10157 -7.84175,3.67691 -14.03775,5.41709 -27,7.58312 -4.52609,0.75632 -38.2946,1.43146 -43,0.8597 z m 36.26881,-16.60396 c 16.35846,-1.79775 22.97762,-3.83808 33.84109,-10.43139 7.50028,-4.5521 12.05436,-8.91978 15.14736,-14.5274 1.09176,-1.97936 1.30053,-9.71729 0.28945,-10.72837 -0.49328,-0.49328 -1.57577,-0.30001 -3.625,0.64721 -16.20956,7.49254 -55.69125,11.23886 -84.92171,8.058 -3.3,-0.3591 -8.7,-0.94282 -12,-1.29715 -11.70882,-1.2572 -28.32691,-4.30158 -32.66667,-5.98442 -10.21215,-3.96 -13.20349,-5.27327 -17.86516,-7.84325 -3.00749,-1.65803 -7.1091,-4.17349 -9.11468,-5.5899 l -3.64652,-2.5753 -0.85829,2.81905 c -1.81969,5.97671 2.01664,15.94533 9.07912,23.59188 5.4779,5.93093 16.34184,12.58839 25.40553,15.56859 14.94243,4.91318 23.5702,6.45149 49.66667,8.85546 7.04634,0.6491 22.82439,0.36501 31.26881,-0.56301 z m 4.69348,-42.97046 c 9.69093,-0.69279 12.53566,-1.12656 22.70437,-3.46201 8.61583,-1.9788 14.01022,-4.12765 19.33334,-7.7014 2.56666,-1.72317 4.81666,-3.29061 5,-3.48319 0.18333,-0.19258 2.73333,-2.28764 5.66666,-4.6557 5.84106,-4.71543 18.46821,-17.131 22.6733,-22.29338 5.9771,-7.33779 15.10857,-20.08555 16.53813,-23.08765 0.25669,-0.53905 1.10709,-2.03008 1.88979,-3.31342 C 445.22886,489.72467 452,476.28371 452,475.66395 c 0,-0.25434 0.42832,-1.40777 0.95182,-2.56318 2.7381,-6.04326 3.71485,-8.42888 3.71485,-9.07323 0,-0.39175 0.28965,-1.23321 0.64368,-1.8699 0.576,-1.03591 1.66843,-4.40578 4.91373,-15.15763 0.55336,-1.83333 1.21873,-4.53333 1.47858,-6 0.25985,-1.46666 0.65806,-2.96666 0.8849,-3.33333 0.43543,-0.70383 1.44183,-5.18228 3.14609,-14 4.27187,-22.10237 5.17508,-42.59038 2.52754,-57.33334 -1.20341,-6.70119 -2.86871,-13.66807 -3.60569,-15.08459 -0.31036,-0.59653 -0.76882,-2.17484 -1.0188,-3.50736 -0.24999,-1.33253 -0.72051,-2.58716 -1.04561,-2.78809 C 464.26599,344.75238 464,344.13923 464,343.59076 c 0,-1.90144 -4.92795,-12.08796 -8.29235,-17.14106 -5.02474,-7.5468 -13.22464,-15.03282 -20.38488,-18.61018 -4.1994,-2.09807 -11.59423,-4.51431 -15.09329,-4.93167 l -3.43718,-0.40998 0.53583,2.91773 c 0.29471,1.60476 1.03278,5.91774 1.64017,9.58441 0.60739,3.66667 1.55266,9.36667 2.1006,12.66667 0.54794,3.3 1.25749,6.9 1.57676,8 0.31928,1.1 0.79171,3.33846 1.04985,4.97436 0.25814,1.6359 0.79974,3.50341 1.20356,4.15003 0.52794,0.84537 0.53094,1.37893 0.0107,1.89919 -0.67244,0.67244 -1.51664,-0.0982 -4.77293,-4.35692 -2.80854,-3.67314 -8.35983,-14.66191 -12.12429,-24 -1.18252,-2.93333 -2.56909,-6.27867 -3.08128,-7.43408 C 404.41906,309.74384 404,308.37884 404,307.86592 c 0,-0.51292 -0.27212,-1.21758 -0.60471,-1.56591 -0.3326,-0.34833 -0.90587,-1.68333 -1.27394,-2.96667 -2.09974,-7.32096 -5.91293,-16.80996 -8.03708,-20 -5.69999,-8.5602 -7.12463,-10.04546 -17.75094,-18.50608 -1.88263,-1.49894 -11.91397,-6.19182 -16,-7.48514 -2.56666,-0.81241 -5.26666,-1.73769 -6,-2.05617 -4.38953,-1.90636 -26.2624,-3.076 -32.57394,-1.74186 l -2.57394,0.54408 0.42362,10.78925 c 0.85176,21.69352 3.5612,45.05891 7.20373,62.12259 0.46963,2.2 1.04359,4.3 1.27547,4.66667 0.23188,0.36666 0.64152,1.71666 0.91031,3 0.2688,1.28333 0.80136,2.72105 1.18348,3.19492 0.81007,1.00458 -0.1732,2.33385 -1.19143,1.61065 -2.89129,-2.05356 -12.90184,-19.62745 -15.84284,-27.81268 -6.77964,-18.86875 -8.72046,-29.61679 -9.68954,-53.65956 -0.70636,-17.52478 -0.70402,-14.77895 -0.0383,-45 0.54352,-24.67427 1.8384,-49.15032 3.26481,-61.71182 0.85397,-7.52035 0.82198,-14.29478 -0.0814,-17.24085 -2.15444,-7.02589 -5.52412,-11.4409 -10.60332,-13.8926 -2.69744,-1.30205 -9.39103,-2.8214 -12.42982,-2.8214 -3.16822,0 -11.04571,1.54272 -15.36443,3.00897 -8.75313,2.97176 -20.96272,11.8871 -26.91393,19.65233 -0.89383,1.16629 -1.93441,2.46961 -2.31239,2.89628 -1.51617,1.71147 -6.23011,9.67855 -7.95357,13.44242 -8.95392,19.55457 -10.33257,37.63175 -6.05032,79.33333 0.60244,5.86667 1.35363,13.36667 1.66933,16.66667 1.6066,16.79398 2.11622,21.86021 2.78306,27.66667 1.72796,15.04623 1.73861,63.36886 0.0162,73.4502 -0.39622,2.31906 -1.19735,7.36647 -1.78028,11.21647 -1.45859,9.63328 -3.60106,19.02314 -6.0845,26.66667 -2.14719,6.6086 -5.87341,15.7569 -7.03287,17.26651 -2.4139,3.14286 -6.40569,4.23418 -9.38885,2.56682 -1.56076,-0.87235 -6.30824,-4.32821 -7.54243,-5.49041 -4.23221,-3.98533 -20.91846,-16.03563 -28.94852,-20.90574 -5.1162,-3.10289 -16.02099,-8.72627 -19.33334,-9.9698 -12.90195,-4.8437 -21.47023,-6.80072 -29.77511,-6.80072 -5.11159,0 -13.16812,1.26776 -16.55822,2.60558 -8.688277,3.42859 -17.345517,9.53318 -23.323678,16.44652 -2.194689,2.53801 -4.172221,4.76457 -4.394515,4.9479 -1.152245,0.9503 -9.001893,13.64651 -11.052353,17.87635 -3.071429,6.33596 -3.210529,9.9991 -0.55196,14.5356 1.042485,1.77887 2.366519,3.71706 2.9423,4.30709 0.874123,0.89577 7.403951,6.14021 9.713539,7.80144 3.902762,2.80718 20.518356,9.67861 29.333337,12.13091 15.4485,4.29771 21.95212,5.76289 34,7.65979 8.45588,1.33134 10.1737,1.84588 15.38713,4.60889 8.92023,4.72754 19.81475,14.83313 45.36507,42.07994 23.48163,25.04076 34.54465,34.91085 48.2478,43.0452 9.4423,5.60508 14.33613,7.4567 26.33333,9.96344 21.56294,4.50544 51.01849,6.34265 74.62896,4.65477 z m 21.44763,-22.72228 c -2.03129,-1.5978 -3.74326,-4.59359 -3.74326,-6.55033 0,-0.73814 2.3761,-6.07804 5.28022,-11.86644 2.90411,-5.7884 5.73172,-11.57436 6.28357,-12.8577 0.55186,-1.28333 1.78058,-4.07775 2.7305,-6.20982 1.8786,-4.21647 4.62022,-11.70282 6.02677,-16.45684 4.51413,-15.25742 5.32643,-17.38957 7.49227,-19.66582 3.57101,-3.75304 8.3324,-3.65719 11.53844,0.23229 2.46581,2.99145 2.52998,5.23764 0.3434,12.01938 -0.90099,2.79445 -2.57773,8.08081 -3.7261,11.74748 -1.14837,3.66667 -2.5112,7.612 -3.02851,8.76742 -0.5173,1.15541 -0.94056,2.43448 -0.94056,2.84238 0,0.40789 -0.28947,1.26255 -0.64328,1.89925 -0.94378,1.69838 -3.35672,7.34622 -3.35672,7.8569 0,0.66932 -12.57293,25.8173 -13.51144,27.02516 -2.25474,2.90184 -7.80415,3.5302 -10.7453,1.21669 z M 335.6,536.40002 c -1.96204,-1.96204 -2.26453,-2.70121 -2.25076,-5.5 0.009,-1.77834 0.32696,-4.43334 0.70715,-5.9 3.88744,-14.99675 7.98787,-37.69628 10.5975,-58.66667 0.36504,-2.93334 0.96074,-7.13334 1.32378,-9.33334 0.36304,-2.2 1.15823,-7.45 1.76709,-11.66666 1.27348,-8.8195 2.17813,-10.79544 5.66169,-12.36631 2.83147,-1.27681 5.12909,-0.95923 8.03616,1.11078 2.75636,1.96271 3.46969,5.19128 2.56047,11.58886 -1.39273,9.79974 -2.67665,19.28249 -3.33976,24.66667 -0.36126,2.93333 -0.83002,6.0721 -1.04168,6.97503 -0.21166,0.90293 -0.64767,3.75293 -0.96892,6.33333 -0.6943,5.57704 -2.25207,14.76297 -3.67851,21.69164 -0.56615,2.75 -1.30255,6.5 -1.63644,8.33333 -0.33388,1.83334 -0.90692,4.38334 -1.27342,5.66667 -0.3665,1.28333 -1.15499,4.58333 -1.7522,7.33333 -1.48493,6.83764 -2.1686,8.42736 -4.44977,10.34684 -1.45769,1.22656 -2.74285,1.65316 -4.9802,1.65316 -2.54052,0 -3.37255,-0.35703 -5.28218,-2.26666 z m -37.94689,0.37348 c -4.74382,-1.55023 -6.54475,-5.5391 -5.64386,-12.50052 1.05306,-8.13713 1.9003,-32.9107 1.54831,-45.27296 -0.39244,-13.78345 0.1217,-16.35351 3.76761,-18.83334 2.7096,-1.84298 5.66024,-1.9104 8.4758,-0.19366 4.3493,2.65193 4.385,2.91437 3.9861,29.30147 -0.53656,35.49325 -1.47435,43.72349 -5.26505,46.20726 -1.93777,1.26967 -5.1106,1.86635 -6.86891,1.29175 z"
       id="path1" />
  </g>
</svg>
